<?xml version="1.0" standalone="no"?>
<!DOCTYPE svg PUBLIC "-//W3C//DTD SVG 20010904//EN"
 "http://www.w3.org/TR/2001/REC-SVG-20010904/DTD/svg10.dtd">
<svg version="1.0" xmlns="http://www.w3.org/2000/svg"
 width="980.000000pt" height="980.000000pt" viewBox="0 0 980.000000 980.000000"
 preserveAspectRatio="xMidYMid meet">

<g transform="translate(0.000000,980.000000) scale(0.100000,-0.100000)"
fill="#38BDF9" stroke="none">
<path d="M3830 7844 c-197 -23 -350 -62 -550 -141 -191 -75 -448 -213 -551
-294 -23 -18 -157 -73 -370 -152 -184 -69 -512 -190 -729 -271 -217 -81 -408
-152 -424 -158 -46 -19 -85 -57 -91 -91 -6 -32 -10 -34 -136 -76 -71 -24 -129
-46 -129 -50 0 -3 -9 -199 -20 -436 -11 -236 -26 -585 -35 -775 -8 -190 -31
-696 -50 -1124 -19 -428 -35 -809 -35 -846 l0 -67 126 -139 126 -139 122 -17
c66 -9 165 -22 218 -28 l97 -12 3 -32 c2 -17 9 -32 16 -32 6 -1 39 -2 72 -3
54 -1 60 -3 60 -22 0 -11 11 -54 25 -95 14 -41 25 -79 25 -84 0 -6 -26 -10
-57 -10 -68 0 -270 -18 -297 -26 -56 -18 87 -63 347 -109 78 -13 320 -52 537
-84 339 -51 1627 -246 2620 -397 1110 -168 1029 -159 1483 -175 539 -19 1351
15 2207 92 289 26 440 58 465 100 11 17 -24 47 -80 68 -60 22 -243 62 -390 85
-55 9 -115 18 -134 22 l-34 5 65 67 c80 82 122 144 165 242 l32 75 80 7 c207
20 358 109 425 253 49 105 77 406 47 498 -13 37 -65 90 -99 101 -18 6 -19 22
-25 284 -9 409 -23 479 -97 510 -31 14 -41 25 -55 65 -35 97 -124 191 -236
247 -82 42 -422 117 -661 145 l-58 7 0 82 c-1 186 -58 275 -202 313 -56 15
-73 15 -122 4 -75 -17 -89 -39 -96 -147 l-5 -81 -165 150 c-91 82 -221 197
-289 256 l-124 106 59 8 c224 30 412 75 594 142 182 67 249 118 301 230 80
171 72 491 -16 681 -87 190 -221 331 -429 453 -237 139 -497 249 -781 331 -55
16 -156 45 -225 65 -285 82 -657 169 -985 229 -500 92 -934 155 -1070 156 -27
0 -94 7 -148 15 -107 16 -262 25 -317 19z m283 -168 c40 -8 144 -17 232 -20
172 -6 312 -24 440 -56 44 -11 163 -34 264 -50 601 -100 1339 -287 1801 -457
404 -148 685 -363 768 -587 36 -94 55 -236 50 -366 -4 -112 -6 -123 -39 -186
-30 -58 -42 -72 -97 -105 -123 -73 -308 -130 -566 -174 -81 -14 -191 -28 -244
-31 -97 -6 -97 -6 -222 39 -381 138 -876 207 -1490 207 -285 0 -321 -5 -328
-42 -3 -17 388 -796 441 -879 57 -88 59 -88 343 -94 495 -10 684 -16 944 -31
390 -22 786 -57 1138 -102 78 -10 142 -17 142 -15 0 2 -40 47 -90 99 -100 106
-98 101 -83 243 5 52 10 65 29 73 55 25 141 -22 175 -97 15 -33 19 -66 19
-182 l0 -142 48 -6 c126 -17 362 -58 497 -86 144 -30 230 -59 278 -94 25 -20
55 -21 -243 14 -321 38 -741 61 -1117 61 -176 0 -183 -1 -209 -23 -35 -31 -34
-65 5 -123 17 -26 31 -57 31 -68 -1 -49 7 -48 -381 -38 -217 5 -375 5 -391 0
-41 -14 -48 -52 -48 -262 l0 -191 79 -185 79 -185 -181 -3 c-100 -1 -183 1
-185 6 -13 41 -89 149 -142 202 -125 125 -242 165 -472 158 -135 -3 -147 -5
-208 -34 -77 -36 -147 -104 -186 -179 -27 -52 -30 -53 -75 -57 -47 -3 -47 -3
-43 27 2 17 13 167 24 335 11 168 23 324 26 348 l5 42 605 0 c376 0 604 4 604
10 0 25 -95 30 -631 30 -507 0 -557 -1 -563 -16 -17 -44 -14 11 9 214 14 121
25 251 23 289 l-3 68 -22 -130 c-12 -71 -30 -196 -40 -277 l-17 -148 -623 -2
c-577 -3 -624 -4 -640 -20 -16 -17 13 -18 620 -18 l637 0 0 -32 c-1 -77 -48
-689 -54 -695 -3 -3 -176 -1 -383 6 -776 25 -776 25 -798 8 -18 -14 -11 -15
75 -21 52 -3 291 -13 530 -21 239 -9 468 -18 508 -21 l72 -6 1 -51 1 -52 12
50 c12 50 12 50 55 53 33 2 42 0 38 -10 -3 -7 -16 -45 -28 -85 -20 -66 -24
-72 -54 -77 -59 -11 -64 -25 -92 -262 -14 -121 -26 -220 -27 -220 0 -1 -230
19 -509 45 -580 52 -520 36 -561 160 -50 152 -68 308 -82 721 -6 149 4 449 21
675 4 55 2 50 -25 -55 -37 -142 -50 -278 -50 -530 0 -516 61 -879 168 -993
l26 -27 -295 0 c-242 0 -332 4 -509 24 -118 13 -218 22 -223 19 -4 -2 -21 -31
-37 -63 -28 -56 -31 -59 -62 -54 -57 7 -634 64 -656 64 -16 0 -22 6 -22 21 0
14 -5 19 -14 16 -8 -3 -21 4 -30 18 -12 18 -13 34 -6 77 4 29 12 62 16 73 8
19 9 19 16 -5 14 -48 -2 432 -17 485 -21 73 -74 155 -123 189 -34 24 -56 31
-106 34 -55 4 -71 0 -113 -22 -55 -31 -93 -80 -116 -151 -22 -67 -26 -98 -41
-318 -7 -103 -15 -189 -17 -191 -2 -2 -89 7 -192 20 l-189 25 -83 87 -84 87
-1 71 c0 94 119 3056 124 3061 8 8 236 76 241 71 3 -2 7 -60 10 -129 3 -68 9
-142 14 -164 8 -37 9 -34 10 35 3 144 19 318 32 338 7 11 22 25 34 31 43 23
1628 621 1632 617 3 -2 -1 -14 -7 -27 -17 -31 -6 -96 21 -125 12 -13 17 -24
11 -24 -7 0 -20 9 -29 20 -10 11 -23 20 -29 20 -6 0 -218 -81 -470 -181 -253
-99 -515 -202 -584 -229 -69 -27 -206 -81 -305 -119 -99 -39 -188 -71 -198
-71 -10 0 -33 7 -53 15 -37 15 -38 9 -4 -30 19 -21 16 -112 -59 -2530 -4 -148
-6 -273 -4 -277 2 -5 15 -8 28 -8 22 0 23 4 29 83 3 45 15 447 26 892 15 594
45 1676 50 1813 0 1 9 2 20 2 10 0 43 9 72 19 29 11 285 104 568 206 283 103
613 222 732 266 120 43 222 79 227 79 5 0 11 -96 14 -212 9 -325 24 -347 26
-37 l1 256 25 23 c24 22 24 24 8 42 -12 14 -19 42 -21 91 -5 78 -12 94 -45
100 -44 8 428 220 598 268 194 56 396 73 538 45z m2429 -2216 c24 -7 61 -34
103 -75 55 -55 65 -70 65 -99 0 -57 18 -81 129 -173 l105 -88 -109 -3 c-109
-3 -490 14 -552 24 -31 6 -32 8 -57 112 -35 145 -56 281 -44 288 34 21 298 31
360 14z m356 -276 c54 -47 99 -90 100 -95 2 -5 -5 -9 -16 -9 -24 0 -202 155
-202 176 0 27 22 14 118 -72z m772 -614 c257 -11 570 -39 780 -71 164 -25 203
-44 244 -119 33 -61 41 -146 52 -577 l7 -273 -846 0 -847 0 7 423 c3 232 3
439 -1 460 -4 20 -21 53 -37 72 -19 22 -29 43 -27 57 3 22 8 23 103 29 172 9
322 9 565 -1z m-667 -267 c9 -5 9 -157 0 -511 l-6 -272 -277 0 -277 0 -86 179
-87 179 0 209 c0 154 3 212 13 222 9 10 84 11 362 6 193 -4 353 -9 358 -12z
m1832 -93 c19 -33 20 -51 20 -355 l0 -320 -40 -3 -40 -3 -2 268 c0 147 -4 310
-8 361 l-7 94 28 -4 c20 -2 34 -13 49 -38z m107 -748 c22 -22 23 -29 23 -182
0 -93 -4 -163 -10 -169 -8 -7 -297 -41 -469 -54 -24 -2 -30 3 -40 33 l-11 35
-201 -2 c-127 -1 -210 -5 -223 -12 -11 -6 -24 -26 -29 -44 l-8 -32 -120 -7
c-617 -36 -700 -39 -1180 -38 -396 0 -511 2 -520 12 -19 21 -124 350 -124 389
0 20 6 41 13 47 7 6 344 12 932 16 506 4 1120 13 1365 20 587 16 574 16 602
-12z m-7078 -72 c33 -12 36 -45 4 -37 -32 9 -71 -16 -97 -65 l-24 -43 28 25
28 25 -7 -27 c-3 -14 -9 -34 -12 -45 -4 -10 7 1 24 24 28 37 59 63 76 63 13 0
5 -41 -9 -46 -22 -9 -55 -68 -71 -127 -37 -139 8 -338 73 -325 9 2 27 24 40
51 13 26 28 47 33 47 14 0 13 -4 -10 -53 -25 -52 -38 -68 -70 -90 -36 -25 -58
-21 -94 16 -67 66 -101 233 -78 382 14 89 64 190 105 216 38 22 30 21 61 9z
m3687 -146 c75 -37 142 -138 174 -259 19 -75 19 -240 0 -323 -66 -278 -298
-406 -465 -255 -155 139 -194 434 -87 656 90 188 231 255 378 181z m-1261
-305 c234 -23 429 -45 433 -49 4 -4 3 -37 -3 -73 -8 -52 -7 -75 4 -107 7 -22
12 -40 10 -40 -2 0 -207 24 -456 54 -249 30 -498 60 -553 66 -151 16 -141 11
-136 71 l3 51 142 -5 c77 -3 133 -4 123 -1 -16 5 -37 41 -37 65 0 14 11 13
470 -32z m2570 -279 c162 -6 329 -10 370 -10 l76 0 28 -66 c16 -36 47 -88 68
-115 21 -27 34 -49 29 -49 -23 0 -68 23 -96 49 l-30 29 -480 26 -480 26 -31
-37 -32 -37 14 64 c7 36 14 82 14 103 l0 38 128 -6 c70 -3 260 -10 422 -15z"/>
<path d="M3561 7293 c-23 -23 -44 -55 -50 -80 -13 -47 -29 -626 -19 -675 9
-46 50 -78 99 -78 22 0 184 27 361 60 359 67 379 74 417 152 29 62 28 131 -5
196 -39 78 -170 192 -339 293 -126 76 -320 161 -377 167 -45 4 -50 2 -87 -35z"/>
<path d="M3146 7078 c-4 -73 -18 -574 -31 -1113 -14 -539 -36 -1243 -50 -1565
-14 -322 -25 -618 -25 -657 l0 -73 30 0 c27 0 30 3 30 34 0 82 50 1386 55
1426 12 103 40 1158 32 1211 -10 66 5 826 17 852 7 14 3 17 -22 17 l-30 0 -6
-132z"/>
<path d="M2901 6369 c-68 -19 -103 -45 -128 -93 -18 -35 -20 -72 -33 -684 -11
-505 -11 -509 50 -531 45 -15 159 -15 165 2 3 9 45 1222 45 1310 0 21 -16 20
-99 -4z"/>
<path d="M4935 6253 c-282 -13 -687 -56 -974 -103 -168 -28 -446 -81 -521 -99
-19 -5 -47 -12 -62 -15 l-27 -6 26 -75 c27 -82 43 -96 43 -37 0 21 6 45 13 54
32 42 1056 199 1485 228 575 38 1342 -26 2071 -175 132 -27 181 -32 91 -9
-245 62 -924 182 -1179 209 -282 30 -686 41 -966 28z"/>
<path d="M2325 6210 c-127 -32 -165 -46 -187 -67 -29 -27 -48 -78 -47 -123 0
-20 5 -14 24 27 13 28 35 59 49 68 38 25 325 97 362 90 37 -6 57 -26 81 -80
20 -46 20 -115 3 -975 -6 -278 -17 -831 -25 -1230 -8 -399 -15 -776 -15 -837
l0 -113 -27 0 c-16 0 -122 14 -237 30 -273 39 -279 39 -238 -8 15 -18 50 -25
262 -51 135 -17 252 -31 260 -31 13 0 15 40 16 298 1 163 14 880 29 1593 15
712 25 1311 21 1331 -3 19 -21 52 -39 73 -47 54 -90 55 -292 5z"/>
<path d="M7148 5993 c7 -3 16 -2 19 1 4 3 -2 6 -13 5 -11 0 -14 -3 -6 -6z"/>
<path d="M4365 5949 c-150 -19 -441 -60 -458 -65 -36 -11 -92 -172 -102 -294
l-5 -65 29 100 c74 255 43 234 404 280 159 20 318 37 355 37 44 0 60 3 47 9
-26 10 -180 9 -270 -2z"/>
<path d="M2310 5916 c-132 -29 -129 -19 -139 -530 -9 -440 -7 -466 39 -481 30
-10 192 4 221 19 45 22 49 60 56 521 l6 430 -22 28 c-26 31 -65 34 -161 13z"/>
<path d="M2086 5783 c-7 -51 -18 -1158 -11 -1133 6 23 28 1170 23 1176 -3 2
-8 -17 -12 -43z"/>
<path d="M4283 5795 c-92 -10 -132 -18 -164 -36 -53 -30 -106 -97 -121 -155
-9 -32 -17 -44 -30 -44 -36 0 -87 -29 -101 -57 -22 -44 -29 -109 -21 -221 4
-56 8 -101 10 -99 2 2 10 63 18 136 16 141 29 175 72 191 14 6 80 10 147 10
145 0 179 -13 196 -77 16 -56 14 -471 -2 -503 -11 -23 -19 -25 -90 -28 -83 -3
-98 -16 -55 -46 19 -13 60 -16 245 -16 l223 0 0 420 c0 458 1 449 -58 513 -23
24 -32 27 -86 26 -34 -1 -116 -7 -183 -14z"/>
<path d="M4664 5503 c3 -21 6 -154 6 -295 0 -150 4 -258 9 -258 22 0 120 104
149 158 l32 60 -92 186 c-51 102 -96 186 -101 186 -5 0 -7 -17 -3 -37z"/>
<path d="M3702 5193 c-34 -125 -72 -331 -77 -423 -4 -57 -2 -79 4 -65 5 11 10
34 11 50 0 17 12 89 26 160 39 205 64 349 60 352 -1 2 -12 -32 -24 -74z"/>
<path d="M3890 4997 c0 -7 6 -22 14 -33 13 -17 30 -19 170 -22 l156 -3 -14 33
-14 33 -156 3 c-125 2 -156 0 -156 -11z"/>
<path d="M3860 4847 l0 -117 381 0 c326 0 388 -2 428 -16 38 -14 53 -14 89 -5
40 11 42 14 42 48 0 34 -1 35 -14 18 -12 -17 -14 -13 -12 36 1 67 -13 89 -60
89 -37 0 -43 -14 -19 -46 8 -10 15 -37 15 -58 l0 -39 -77 6 c-43 3 -194 12
-335 18 -291 14 -286 12 -295 94 l-6 45 -48 0 c-37 0 -53 5 -69 22 l-20 22 0
-117z"/>
<path d="M5883 4834 c3 -3 78 -17 167 -30 224 -33 405 -68 616 -120 100 -24
190 -47 200 -51 19 -6 19 -6 0 15 -42 48 -393 133 -729 177 -118 15 -266 20
-254 9z"/>
<path d="M2110 4640 c-6 -11 -10 -57 -8 -103 l3 -82 30 -3 c19 -3 33 2 42 14
17 23 18 165 1 182 -19 19 -56 14 -68 -8z"/>
<path d="M3722 4288 c-19 -19 -17 -272 2 -287 17 -15 50 -1 60 25 3 8 6 54 6
100 0 68 3 84 15 84 24 0 20 67 -4 80 -26 14 -64 13 -79 -2z"/>
<path d="M2047 3813 c-10 -245 -8 -586 3 -603 6 -10 10 120 10 378 0 215 -2
392 -3 392 -2 0 -7 -75 -10 -167z"/>
<path d="M1906 3067 c-5 -9 -5 -34 0 -55 7 -34 8 -35 12 -9 2 15 2 39 0 55 -4
22 -6 24 -12 9z"/>
<path d="M7230 4328 c0 -2 -1 -151 -1 -333 l-1 -330 61 -3 61 -3 0 336 0 335
-60 0 c-33 0 -60 -1 -60 -2z"/>
<path d="M7520 4261 l0 -59 63 -6 c34 -3 172 -8 307 -11 135 -3 332 -8 438
-12 l192 -6 0 57 c0 37 -4 58 -12 60 -14 5 -858 37 -940 36 l-48 0 0 -59z"/>
<path d="M8570 3985 l0 -295 55 0 56 0 -1 279 c-1 204 -4 282 -13 289 -7 5
-31 12 -54 16 l-43 6 0 -295z"/>
<path d="M7520 3985 l0 -75 53 0 c28 0 108 -3 177 -6 l125 -7 0 82 1 81 -178
0 -178 0 0 -75z"/>
<path d="M8236 4015 c12 -19 15 -36 10 -70 l-7 -45 140 0 141 0 0 70 0 70
-150 0 -150 0 16 -25z"/>
<path d="M7520 3715 l0 -65 500 0 500 0 0 65 0 65 -500 0 -500 0 0 -65z"/>
<path d="M6530 4097 l0 -147 205 0 205 0 -20 40 -20 40 -134 0 c-95 0 -136 4
-143 13 -6 6 -27 53 -48 102 -21 50 -39 92 -41 94 -2 2 -4 -62 -4 -142z"/>
<path d="M6532 3723 l3 -138 203 -3 c111 -1 202 0 202 3 0 3 -11 28 -25 55
l-25 50 -143 0 -143 0 -29 81 c-16 44 -33 83 -38 86 -4 2 -6 -58 -5 -134z"/>
<path d="M8130 3373 c-314 -12 -410 -18 -427 -29 -21 -13 -23 -22 -23 -108 0
-73 3 -96 16 -107 21 -18 884 36 927 57 26 14 27 17 27 99 0 96 -8 106 -77
104 -21 -1 -220 -8 -443 -16z"/>
<path d="M1732 3057 c-11 -13 -12 -30 -2 -88 6 -40 18 -87 26 -104 15 -33 50
-75 61 -75 3 0 -1 8 -10 18 -30 33 -49 95 -55 181 -6 72 -9 82 -20 68z"/>
<path d="M5323 3164 c-7 -20 9 -49 28 -49 22 0 18 59 -4 63 -9 2 -20 -4 -24
-14z"/>
<path d="M5482 3168 c-17 -17 -15 -43 4 -58 22 -19 49 9 40 44 -7 28 -25 33
-44 14z"/>
<path d="M5315 3065 c-16 -9 -40 -25 -51 -36 -21 -20 -21 -20 -27 2 -7 26 -31
20 -35 -9 -3 -16 2 -22 16 -22 18 0 18 -2 -4 -47 -13 -27 -28 -77 -33 -113
-26 -189 61 -340 194 -340 46 0 84 20 125 66 58 67 74 116 74 234 1 95 -2 110
-27 162 -36 74 -84 110 -151 115 -34 3 -61 -1 -81 -12z m125 -82 c15 -9 39
-35 52 -57 20 -35 23 -55 23 -136 0 -105 -19 -158 -71 -199 -33 -26 -85 -27
-106 -3 -24 27 -48 79 -48 104 0 20 3 18 25 -15 14 -20 27 -37 30 -37 2 0 12
-3 22 -7 17 -6 17 -5 2 13 -46 54 -67 141 -50 214 13 56 6 63 -25 25 -28 -35
-30 -31 -9 17 17 42 78 98 106 98 12 0 34 -7 49 -17z"/>
<path d="M5413 2922 c24 -26 47 -87 47 -122 0 -29 -1 -30 -50 -30 -46 0 -50
-2 -50 -24 0 -37 42 -91 73 -94 24 -3 30 2 47 40 36 79 16 192 -41 232 -31 21
-46 20 -26 -2z"/>
<path d="M5591 3042 c-11 -21 3 -52 24 -52 19 0 37 34 29 54 -8 21 -41 20 -53
-2z"/>
<path d="M5644 2816 c-10 -26 4 -48 28 -44 17 2 23 10 23 28 0 18 -6 26 -23
28 -13 2 -25 -3 -28 -12z"/>
<path d="M5587 2604 c-12 -12 -8 -41 8 -54 20 -17 47 5 43 34 -3 21 -37 34
-51 20z"/>
<path d="M5183 2564 c-3 -8 -1 -20 6 -27 14 -14 47 15 37 32 -10 16 -36 13
-43 -5z"/>
<path d="M5299 2464 c-13 -16 -4 -44 19 -52 18 -6 36 37 21 54 -15 18 -23 18
-40 -2z"/>
<path d="M5459 2464 c-13 -16 -4 -44 19 -52 18 -6 36 37 21 54 -15 18 -23 18
-40 -2z"/>
</g>
</svg>
