<?xml version="1.0" encoding="UTF-8"?>
<svg xmlns="http://www.w3.org/2000/svg" xmlns:xlink="http://www.w3.org/1999/xlink" width="0" height="0">
	<symbol id="fuel" width="20" height="20" viewBox="0 0 20 20" fill="none">
		<g clip-path="url(#clip0_12068_445)">
			<path d="M3.75 3.125C3.75 2.95924 3.81585 2.80027 3.93306 2.68306C4.05027 2.56585 4.20924 2.5 4.375 2.5H10.625C10.7908 2.5 10.9497 2.56585 11.0669 2.68306C11.1842 2.80027 11.25 2.95924 11.25 3.125V9.375C11.25 9.54076 11.1842 9.69973 11.0669 9.81694C10.9497 9.93415 10.7908 10 10.625 10H4.375C4.20924 10 4.05027 9.93415 3.93306 9.81694C3.81585 9.69973 3.75 9.54076 3.75 9.375V3.125Z" />
			<path d="M1.25 2.5C1.25 1.83696 1.51339 1.20107 1.98223 0.732233C2.45107 0.263392 3.08696 0 3.75 0L11.25 0C11.913 0 12.5489 0.263392 13.0178 0.732233C13.4866 1.20107 13.75 1.83696 13.75 2.5V12.5C14.413 12.5 15.0489 12.7634 15.5178 13.2322C15.9866 13.7011 16.25 14.337 16.25 15V15.625C16.25 15.7908 16.3158 15.9497 16.4331 16.0669C16.5503 16.1842 16.7092 16.25 16.875 16.25C17.0408 16.25 17.1997 16.1842 17.3169 16.0669C17.4342 15.9497 17.5 15.7908 17.5 15.625V10H16.875C16.7092 10 16.5503 9.93415 16.4331 9.81694C16.3158 9.69973 16.25 9.54076 16.25 9.375V5.46875C16.25 5.30299 16.3158 5.14402 16.4331 5.02681C16.5503 4.9096 16.7092 4.84375 16.875 4.84375H18.7437C18.73 4.24875 18.6775 3.72625 18.4925 3.31625C18.3935 3.07785 18.2209 2.87729 18 2.74375C17.77 2.60625 17.42 2.5 16.875 2.5C16.7092 2.5 16.5503 2.43415 16.4331 2.31694C16.3158 2.19973 16.25 2.04076 16.25 1.875C16.25 1.70924 16.3158 1.55027 16.4331 1.43306C16.5503 1.31585 16.7092 1.25 16.875 1.25C17.58 1.24833 18.1683 1.38833 18.64 1.67C19.1187 1.955 19.4325 2.35875 19.6325 2.80375C20.0013 3.6225 20 4.635 20 5.405V9.37375C20.0002 9.45593 19.9841 9.53734 19.9528 9.61331C19.9214 9.68928 19.8754 9.75833 19.8174 9.8165C19.7593 9.87467 19.6904 9.92082 19.6145 9.95231C19.5386 9.98379 19.4572 10 19.375 10H18.75V15.625C18.75 16.1223 18.5525 16.5992 18.2008 16.9508C17.8492 17.3025 17.3723 17.5 16.875 17.5C16.3777 17.5 15.9008 17.3025 15.5492 16.9508C15.1975 16.5992 15 16.1223 15 15.625V15C15 14.6685 14.8683 14.3505 14.6339 14.1161C14.3995 13.8817 14.0815 13.75 13.75 13.75V18.75H14.375C14.5408 18.75 14.6997 18.8158 14.8169 18.9331C14.9342 19.0503 15 19.2092 15 19.375C15 19.5408 14.9342 19.6997 14.8169 19.8169C14.6997 19.9342 14.5408 20 14.375 20H0.625C0.45924 20 0.300269 19.9342 0.183058 19.8169C0.065848 19.6997 0 19.5408 0 19.375C0 19.2092 0.065848 19.0503 0.183058 18.9331C0.300269 18.8158 0.45924 18.75 0.625 18.75H1.25V2.5ZM12.5 2.5C12.5 2.16848 12.3683 1.85054 12.1339 1.61612C11.8995 1.3817 11.5815 1.25 11.25 1.25H3.75C3.41848 1.25 3.10054 1.3817 2.86612 1.61612C2.6317 1.85054 2.5 2.16848 2.5 2.5V18.75H12.5V2.5Z" />
		</g>
		<defs>
			<clipPath>
				<rect width="20" height="20" />
			</clipPath>
		</defs>
	</symbol>
	<symbol id="coffee" width="20" height="20" viewBox="0 0 20 20" fill="none">
		<path fill-rule="evenodd" clip-rule="evenodd" d="M0.624998 7.5C0.531477 7.50004 0.439157 7.52106 0.354842 7.56152C0.270527 7.60198 0.196366 7.66085 0.137827 7.73378C0.0792885 7.80672 0.0378632 7.89186 0.016605 7.98293C-0.00465315 8.074 -0.00520222 8.16869 0.0149983 8.26L2.08 17.5525C2.23414 18.2466 2.62034 18.8673 3.17485 19.3123C3.72936 19.7573 4.41903 19.9998 5.13 20H12.37C13.081 19.9998 13.7706 19.7573 14.3251 19.3123C14.8797 18.8673 15.2659 18.2466 15.42 17.5525L15.5837 16.815C16.5399 16.9938 17.5281 16.7941 18.3398 16.2581C19.1515 15.722 19.7231 14.8915 19.934 13.9419C20.1449 12.9923 19.9785 11.9979 19.47 11.1686C18.9615 10.3394 18.1507 9.74018 17.2087 9.4975L17.485 8.26C17.5052 8.16869 17.5047 8.074 17.4834 7.98293C17.4621 7.89186 17.4207 7.80672 17.3622 7.73378C17.3036 7.66085 17.2295 7.60198 17.1452 7.56152C17.0608 7.52106 16.9685 7.50004 16.875 7.5H0.624998ZM16.25 15.625C16.1177 15.6251 15.9856 15.6146 15.855 15.5938L16.9387 10.7212C17.5169 10.8887 18.0152 11.259 18.3424 11.7642C18.6695 12.2694 18.8036 12.8756 18.7198 13.4717C18.6361 14.0677 18.3403 14.6135 17.8866 15.0091C17.433 15.4046 16.8519 15.6233 16.25 15.625ZM3.3 17.2812L1.40375 8.75H16.0962L14.2 17.2812C14.1076 17.6977 13.8759 18.0702 13.5432 18.3373C13.2104 18.6043 12.7966 18.7499 12.37 18.75H5.13C4.70338 18.7499 4.28955 18.6043 3.95684 18.3373C3.62413 18.0702 3.39243 17.6977 3.3 17.2812Z" />
		<path d="M5.5 1.00005L5.49625 1.00505L5.47875 1.0288C5.3878 1.15395 5.30271 1.28326 5.22375 1.4163C5.15667 1.52295 5.09776 1.63452 5.0475 1.75005C5.015 1.82505 5.005 1.86505 5.00125 1.8788V1.8838C5.01567 1.9943 5.05452 2.1002 5.115 2.1938C5.20875 2.36005 5.3375 2.5338 5.5 2.75005L5.5125 2.76505C5.66 2.96255 5.8375 3.1988 5.975 3.4438C6.115 3.6938 6.25 4.01255 6.25 4.37505C6.25 4.61005 6.16875 4.83505 6.10125 4.99255C6.029 5.16015 5.94461 5.32225 5.84875 5.47755C5.75069 5.64147 5.64516 5.8008 5.5325 5.95505L5.51 5.9863L5.50375 5.9963L5.50125 5.9988C5.40196 6.13158 5.25399 6.21947 5.0899 6.24315C4.9258 6.26682 4.75902 6.22434 4.62625 6.12505C4.49348 6.02576 4.40558 5.87779 4.38191 5.7137C4.35823 5.5496 4.40071 5.38283 4.5 5.25005L4.50375 5.24505L4.52125 5.2213C4.6122 5.09615 4.69729 4.96685 4.77625 4.8338C4.84333 4.72715 4.90224 4.61558 4.9525 4.50005C4.985 4.42505 4.995 4.38505 4.99875 4.3713C4.98544 4.25917 4.94698 4.15149 4.88625 4.0563C4.77022 3.86237 4.64117 3.67653 4.5 3.50005L4.4875 3.48505C4.31862 3.26919 4.16412 3.04245 4.025 2.8063C3.85475 2.52471 3.76003 2.20396 3.75 1.87505C3.75 1.64005 3.83125 1.41505 3.89875 1.25755C3.9725 1.08505 4.06625 0.915052 4.15125 0.772552C4.25055 0.609417 4.35604 0.450135 4.4675 0.295052L4.49875 0.251303C4.59804 0.118529 4.74601 0.0306355 4.9101 0.00695907C5.0742 -0.0167174 5.24098 0.0257621 5.37375 0.125053C5.50652 0.224343 5.59442 0.372311 5.61809 0.536405C5.64177 0.7005 5.59929 0.867279 5.5 1.00005ZM9.25 1.00005L9.24625 1.00505L9.22875 1.0288C9.1378 1.15395 9.05271 1.28326 8.97375 1.4163C8.90667 1.52295 8.84776 1.63452 8.7975 1.75005C8.765 1.82505 8.755 1.86505 8.75125 1.8788V1.8838C8.76567 1.9943 8.80452 2.1002 8.865 2.1938C8.95875 2.36005 9.0875 2.5338 9.25 2.75005L9.2625 2.76505C9.41 2.96255 9.5875 3.1988 9.725 3.4438C9.865 3.6938 10 4.01255 10 4.37505C10 4.61005 9.91875 4.83505 9.85125 4.99255C9.779 5.16015 9.69461 5.32225 9.59875 5.47755C9.50069 5.64147 9.39516 5.8008 9.2825 5.95505L9.26 5.9863L9.25375 5.9963L9.25125 5.9988C9.15196 6.13158 9.00399 6.21947 8.8399 6.24315C8.6758 6.26682 8.50902 6.22434 8.37625 6.12505C8.24348 6.02576 8.15558 5.87779 8.13191 5.7137C8.10823 5.5496 8.15071 5.38283 8.25 5.25005L8.25375 5.24505L8.27125 5.2213C8.3622 5.09615 8.44729 4.96685 8.52625 4.8338C8.59333 4.72715 8.65224 4.61558 8.7025 4.50005C8.735 4.42505 8.745 4.38505 8.74875 4.3713C8.73544 4.25917 8.69698 4.15149 8.63625 4.0563C8.52022 3.86237 8.39117 3.67653 8.25 3.50005L8.2375 3.48505C8.06862 3.26919 7.91412 3.04245 7.775 2.8063C7.60475 2.52471 7.51003 2.20396 7.5 1.87505C7.5 1.64005 7.58125 1.41505 7.64875 1.25755C7.7225 1.08505 7.81625 0.915052 7.90125 0.772552C8.00055 0.609417 8.10604 0.450135 8.2175 0.295052L8.24875 0.251303C8.34804 0.118529 8.49601 0.0306355 8.6601 0.00695906C8.8242 -0.0167174 8.99098 0.0257621 9.12375 0.125052C9.25652 0.224343 9.34442 0.372311 9.36809 0.536405C9.39177 0.7005 9.34929 0.867279 9.25 1.00005ZM13 1.00005L12.9963 1.00505L12.9788 1.0288C12.8878 1.15395 12.8027 1.28326 12.7238 1.4163C12.6567 1.52295 12.5978 1.63452 12.5475 1.75005C12.515 1.82505 12.505 1.86505 12.5013 1.8788V1.8838C12.5157 1.9943 12.5545 2.1002 12.615 2.1938C12.7087 2.36005 12.8375 2.5338 13 2.75005L13.0125 2.76505C13.16 2.96255 13.3375 3.1988 13.475 3.4438C13.615 3.6938 13.75 4.01255 13.75 4.37505C13.75 4.61005 13.6687 4.83505 13.6012 4.99255C13.529 5.16015 13.4446 5.32225 13.3488 5.47755C13.2511 5.64144 13.146 5.80078 13.0338 5.95505L13.01 5.9863L13.0037 5.9963L13.0013 5.9988C12.902 6.13158 12.754 6.21947 12.5899 6.24315C12.4258 6.26682 12.259 6.22434 12.1263 6.12505C11.9935 6.02576 11.9056 5.87779 11.8819 5.7137C11.8582 5.5496 11.9007 5.38283 12 5.25005L12.0037 5.24505L12.0212 5.2213C12.1122 5.09615 12.1973 4.96685 12.2762 4.8338C12.3433 4.72715 12.4022 4.61558 12.4525 4.50005C12.485 4.42505 12.495 4.38505 12.4987 4.3713C12.4854 4.25917 12.447 4.15149 12.3863 4.0563C12.2702 3.86237 12.1412 3.67653 12 3.50005L11.9875 3.48505C11.8186 3.26919 11.6641 3.04245 11.525 2.8063C11.3547 2.52471 11.26 2.20396 11.25 1.87505C11.25 1.64005 11.3313 1.41505 11.3988 1.25755C11.4725 1.08505 11.5663 0.915052 11.6512 0.772552C11.7505 0.609417 11.856 0.450135 11.9675 0.295052L11.9987 0.251303C12.098 0.118529 12.246 0.0306355 12.4101 0.00695906C12.5742 -0.0167174 12.741 0.0257621 12.8737 0.125052C13.0065 0.224343 13.0944 0.372311 13.1181 0.536405C13.1418 0.7005 13.0993 0.867279 13 1.00005Z" />
	</symbol>
	<symbol id="diagram" width="32" height="32" viewBox="0 0 32 32" fill="none">
		<path fill-rule="evenodd" clip-rule="evenodd" d="M12 7C12 6.20435 12.3161 5.44129 12.8787 4.87868C13.4413 4.31607 14.2044 4 15 4H17C17.7956 4 18.5587 4.31607 19.1213 4.87868C19.6839 5.44129 20 6.20435 20 7V9C20 9.79565 19.6839 10.5587 19.1213 11.1213C18.5587 11.6839 17.7956 12 17 12V14H28C28.2652 14 28.5196 14.1054 28.7071 14.2929C28.8946 14.4804 29 14.7348 29 15V17C29 17.2652 28.8946 17.5196 28.7071 17.7071C28.5196 17.8946 28.2652 18 28 18C27.7348 18 27.4804 17.8946 27.2929 17.7071C27.1054 17.5196 27 17.2652 27 17V16H17V17C17 17.2652 16.8946 17.5196 16.7071 17.7071C16.5196 17.8946 16.2652 18 16 18C15.7348 18 15.4804 17.8946 15.2929 17.7071C15.1054 17.5196 15 17.2652 15 17V16H5V17C5 17.2652 4.89464 17.5196 4.70711 17.7071C4.51957 17.8946 4.26522 18 4 18C3.73478 18 3.48043 17.8946 3.29289 17.7071C3.10536 17.5196 3 17.2652 3 17V15C3 14.7348 3.10536 14.4804 3.29289 14.2929C3.48043 14.1054 3.73478 14 4 14H15V12C14.2044 12 13.4413 11.6839 12.8787 11.1213C12.3161 10.5587 12 9.79565 12 9V7ZM17 10C17.2652 10 17.5196 9.89464 17.7071 9.70711C17.8946 9.51957 18 9.26522 18 9V7C18 6.73478 17.8946 6.48043 17.7071 6.29289C17.5196 6.10536 17.2652 6 17 6H15C14.7348 6 14.4804 6.10536 14.2929 6.29289C14.1054 6.48043 14 6.73478 14 7V9C14 9.26522 14.1054 9.51957 14.2929 9.70711C14.4804 9.89464 14.7348 10 15 10H17ZM0 23C0 22.2044 0.31607 21.4413 0.87868 20.8787C1.44129 20.3161 2.20435 20 3 20H5C5.79565 20 6.55871 20.3161 7.12132 20.8787C7.68393 21.4413 8 22.2044 8 23V25C8 25.7956 7.68393 26.5587 7.12132 27.1213C6.55871 27.6839 5.79565 28 5 28H3C2.20435 28 1.44129 27.6839 0.87868 27.1213C0.31607 26.5587 0 25.7956 0 25L0 23ZM3 22C2.73478 22 2.48043 22.1054 2.29289 22.2929C2.10536 22.4804 2 22.7348 2 23V25C2 25.2652 2.10536 25.5196 2.29289 25.7071C2.48043 25.8946 2.73478 26 3 26H5C5.26522 26 5.51957 25.8946 5.70711 25.7071C5.89464 25.5196 6 25.2652 6 25V23C6 22.7348 5.89464 22.4804 5.70711 22.2929C5.51957 22.1054 5.26522 22 5 22H3ZM12 23C12 22.2044 12.3161 21.4413 12.8787 20.8787C13.4413 20.3161 14.2044 20 15 20H17C17.7956 20 18.5587 20.3161 19.1213 20.8787C19.6839 21.4413 20 22.2044 20 23V25C20 25.7956 19.6839 26.5587 19.1213 27.1213C18.5587 27.6839 17.7956 28 17 28H15C14.2044 28 13.4413 27.6839 12.8787 27.1213C12.3161 26.5587 12 25.7956 12 25V23ZM15 22C14.7348 22 14.4804 22.1054 14.2929 22.2929C14.1054 22.4804 14 22.7348 14 23V25C14 25.2652 14.1054 25.5196 14.2929 25.7071C14.4804 25.8946 14.7348 26 15 26H17C17.2652 26 17.5196 25.8946 17.7071 25.7071C17.8946 25.5196 18 25.2652 18 25V23C18 22.7348 17.8946 22.4804 17.7071 22.2929C17.5196 22.1054 17.2652 22 17 22H15ZM24 23C24 22.2044 24.3161 21.4413 24.8787 20.8787C25.4413 20.3161 26.2044 20 27 20H29C29.7956 20 30.5587 20.3161 31.1213 20.8787C31.6839 21.4413 32 22.2044 32 23V25C32 25.7956 31.6839 26.5587 31.1213 27.1213C30.5587 27.6839 29.7956 28 29 28H27C26.2044 28 25.4413 27.6839 24.8787 27.1213C24.3161 26.5587 24 25.7956 24 25V23ZM27 22C26.7348 22 26.4804 22.1054 26.2929 22.2929C26.1054 22.4804 26 22.7348 26 23V25C26 25.2652 26.1054 25.5196 26.2929 25.7071C26.4804 25.8946 26.7348 26 27 26H29C29.2652 26 29.5196 25.8946 29.7071 25.7071C29.8946 25.5196 30 25.2652 30 25V23C30 22.7348 29.8946 22.4804 29.7071 22.2929C29.5196 22.1054 29.2652 22 29 22H27Z" />
	</symbol>
	<symbol id="drop" width="32" height="32" viewBox="0 0 32 32" fill="none">
		<path fill-rule="evenodd" clip-rule="evenodd" d="M14.42 1.6C15.38 0.59 16 0 16 0C16.2187 0.725333 16.466 1.41733 16.742 2.076C18.366 5.968 20.888 8.776 23.136 11.276C25.756 14.192 28 16.69 28 20C28 23.1826 26.7357 26.2348 24.4853 28.4853C22.2348 30.7357 19.1826 32 16 32C12.8174 32 9.76515 30.7357 7.51472 28.4853C5.26428 26.2348 4 23.1826 4 20C4 13.336 11.16 5.034 14.42 1.6ZM15.246 3.642C13.9611 5.03141 12.7405 6.47893 11.588 7.98C10.136 9.88 8.716 11.996 7.668 14.12C6.608 16.266 6 18.276 6 20C6 22.6522 7.05357 25.1957 8.92893 27.0711C10.8043 28.9464 13.3478 30 16 30C18.6522 30 21.1957 28.9464 23.0711 27.0711C24.9464 25.1957 26 22.6522 26 20C26 17.598 24.408 15.686 21.638 12.6L21.578 12.536C19.5 10.22 17 7.442 15.246 3.642Z" />
		<path fill-rule="evenodd" clip-rule="evenodd" d="M9.106 15.552C10.746 12.27 12.54 10.046 13.292 9.29199L14.708 10.708C14.128 11.288 12.452 13.33 10.894 16.448L9.106 15.552Z" />
	</symbol>
	<symbol id="grid-1x2" width="32" height="32" viewBox="0 0 32 32" fill="none">
		<g clip-path="url(#clip0_12138_451)">
			<path d="M12 2H2V30H12V2ZM30 2H20V12H30V2ZM30 20V30H20V20H30ZM0 2C0 1.46957 0.210714 0.960859 0.585786 0.585786C0.960859 0.210714 1.46957 0 2 0L12 0C12.5304 0 13.0391 0.210714 13.4142 0.585786C13.7893 0.960859 14 1.46957 14 2V30C14 30.5304 13.7893 31.0391 13.4142 31.4142C13.0391 31.7893 12.5304 32 12 32H2C1.46957 32 0.960859 31.7893 0.585786 31.4142C0.210714 31.0391 0 30.5304 0 30V2ZM18 2C18 1.46957 18.2107 0.960859 18.5858 0.585786C18.9609 0.210714 19.4696 0 20 0L30 0C30.5304 0 31.0391 0.210714 31.4142 0.585786C31.7893 0.960859 32 1.46957 32 2V12C32 12.5304 31.7893 13.0391 31.4142 13.4142C31.0391 13.7893 30.5304 14 30 14H20C19.4696 14 18.9609 13.7893 18.5858 13.4142C18.2107 13.0391 18 12.5304 18 12V2ZM20 18C19.4696 18 18.9609 18.2107 18.5858 18.5858C18.2107 18.9609 18 19.4696 18 20V30C18 30.5304 18.2107 31.0391 18.5858 31.4142C18.9609 31.7893 19.4696 32 20 32H30C30.5304 32 31.0391 31.7893 31.4142 31.4142C31.7893 31.0391 32 30.5304 32 30V20C32 19.4696 31.7893 18.9609 31.4142 18.5858C31.0391 18.2107 30.5304 18 30 18H20Z" />
		</g>
		<defs>
			<clipPath>
				<rect width="32" height="32" />
			</clipPath>
		</defs>
	</symbol>
	<symbol id="grid-2x2" width="32" height="32" viewBox="0 0 32 32" fill="none">
		<path d="M2 5C2 4.20435 2.31607 3.44129 2.87868 2.87868C3.44129 2.31607 4.20435 2 5 2H11C11.7956 2 12.5587 2.31607 13.1213 2.87868C13.6839 3.44129 14 4.20435 14 5V11C14 11.7956 13.6839 12.5587 13.1213 13.1213C12.5587 13.6839 11.7956 14 11 14H5C4.20435 14 3.44129 13.6839 2.87868 13.1213C2.31607 12.5587 2 11.7956 2 11V5ZM5 4C4.73478 4 4.48043 4.10536 4.29289 4.29289C4.10536 4.48043 4 4.73478 4 5V11C4 11.2652 4.10536 11.5196 4.29289 11.7071C4.48043 11.8946 4.73478 12 5 12H11C11.2652 12 11.5196 11.8946 11.7071 11.7071C11.8946 11.5196 12 11.2652 12 11V5C12 4.73478 11.8946 4.48043 11.7071 4.29289C11.5196 4.10536 11.2652 4 11 4H5ZM18 5C18 4.20435 18.3161 3.44129 18.8787 2.87868C19.4413 2.31607 20.2044 2 21 2H27C27.7956 2 28.5587 2.31607 29.1213 2.87868C29.6839 3.44129 30 4.20435 30 5V11C30 11.7956 29.6839 12.5587 29.1213 13.1213C28.5587 13.6839 27.7956 14 27 14H21C20.2044 14 19.4413 13.6839 18.8787 13.1213C18.3161 12.5587 18 11.7956 18 11V5ZM21 4C20.7348 4 20.4804 4.10536 20.2929 4.29289C20.1054 4.48043 20 4.73478 20 5V11C20 11.2652 20.1054 11.5196 20.2929 11.7071C20.4804 11.8946 20.7348 12 21 12H27C27.2652 12 27.5196 11.8946 27.7071 11.7071C27.8946 11.5196 28 11.2652 28 11V5C28 4.73478 27.8946 4.48043 27.7071 4.29289C27.5196 4.10536 27.2652 4 27 4H21ZM2 21C2 20.2044 2.31607 19.4413 2.87868 18.8787C3.44129 18.3161 4.20435 18 5 18H11C11.7956 18 12.5587 18.3161 13.1213 18.8787C13.6839 19.4413 14 20.2044 14 21V27C14 27.7956 13.6839 28.5587 13.1213 29.1213C12.5587 29.6839 11.7956 30 11 30H5C4.20435 30 3.44129 29.6839 2.87868 29.1213C2.31607 28.5587 2 27.7956 2 27V21ZM5 20C4.73478 20 4.48043 20.1054 4.29289 20.2929C4.10536 20.4804 4 20.7348 4 21V27C4 27.2652 4.10536 27.5196 4.29289 27.7071C4.48043 27.8946 4.73478 28 5 28H11C11.2652 28 11.5196 27.8946 11.7071 27.7071C11.8946 27.5196 12 27.2652 12 27V21C12 20.7348 11.8946 20.4804 11.7071 20.2929C11.5196 20.1054 11.2652 20 11 20H5ZM18 21C18 20.2044 18.3161 19.4413 18.8787 18.8787C19.4413 18.3161 20.2044 18 21 18H27C27.7956 18 28.5587 18.3161 29.1213 18.8787C29.6839 19.4413 30 20.2044 30 21V27C30 27.7956 29.6839 28.5587 29.1213 29.1213C28.5587 29.6839 27.7956 30 27 30H21C20.2044 30 19.4413 29.6839 18.8787 29.1213C18.3161 28.5587 18 27.7956 18 27V21ZM21 20C20.7348 20 20.4804 20.1054 20.2929 20.2929C20.1054 20.4804 20 20.7348 20 21V27C20 27.2652 20.1054 27.5196 20.2929 27.7071C20.4804 27.8946 20.7348 28 21 28H27C27.2652 28 27.5196 27.8946 27.7071 27.7071C27.8946 27.5196 28 27.2652 28 27V21C28 20.7348 27.8946 20.4804 27.7071 20.2929C27.5196 20.1054 27.2652 20 27 20H21Z" />
	</symbol>
	<symbol id="grid-3x3" width="32" height="32" viewBox="0 0 32 32" fill="none">
		<path d="M8 4V8H4V4H8ZM10 28V24C10 23.4696 9.78929 22.9609 9.41421 22.5858C9.03914 22.2107 8.53043 22 8 22H4C3.46957 22 2.96086 22.2107 2.58579 22.5858C2.21071 22.9609 2 23.4696 2 24V28C2 28.5304 2.21071 29.0391 2.58579 29.4142C2.96086 29.7893 3.46957 30 4 30H8C8.53043 30 9.03914 29.7893 9.41421 29.4142C9.78929 29.0391 10 28.5304 10 28ZM10 18V14C10 13.4696 9.78929 12.9609 9.41421 12.5858C9.03914 12.2107 8.53043 12 8 12H4C3.46957 12 2.96086 12.2107 2.58579 12.5858C2.21071 12.9609 2 13.4696 2 14V18C2 18.5304 2.21071 19.0391 2.58579 19.4142C2.96086 19.7893 3.46957 20 4 20H8C8.53043 20 9.03914 19.7893 9.41421 19.4142C9.78929 19.0391 10 18.5304 10 18ZM10 8V4C10 3.46957 9.78929 2.96086 9.41421 2.58579C9.03914 2.21071 8.53043 2 8 2H4C3.46957 2 2.96086 2.21071 2.58579 2.58579C2.21071 2.96086 2 3.46957 2 4V8C2 8.53043 2.21071 9.03914 2.58579 9.41421C2.96086 9.78929 3.46957 10 4 10H8C8.53043 10 9.03914 9.78929 9.41421 9.41421C9.78929 9.03914 10 8.53043 10 8ZM20 28V24C20 23.4696 19.7893 22.9609 19.4142 22.5858C19.0391 22.2107 18.5304 22 18 22H14C13.4696 22 12.9609 22.2107 12.5858 22.5858C12.2107 22.9609 12 23.4696 12 24V28C12 28.5304 12.2107 29.0391 12.5858 29.4142C12.9609 29.7893 13.4696 30 14 30H18C18.5304 30 19.0391 29.7893 19.4142 29.4142C19.7893 29.0391 20 28.5304 20 28ZM20 18V14C20 13.4696 19.7893 12.9609 19.4142 12.5858C19.0391 12.2107 18.5304 12 18 12H14C13.4696 12 12.9609 12.2107 12.5858 12.5858C12.2107 12.9609 12 13.4696 12 14V18C12 18.5304 12.2107 19.0391 12.5858 19.4142C12.9609 19.7893 13.4696 20 14 20H18C18.5304 20 19.0391 19.7893 19.4142 19.4142C19.7893 19.0391 20 18.5304 20 18ZM20 8V4C20 3.46957 19.7893 2.96086 19.4142 2.58579C19.0391 2.21071 18.5304 2 18 2H14C13.4696 2 12.9609 2.21071 12.5858 2.58579C12.2107 2.96086 12 3.46957 12 4V8C12 8.53043 12.2107 9.03914 12.5858 9.41421C12.9609 9.78929 13.4696 10 14 10H18C18.5304 10 19.0391 9.78929 19.4142 9.41421C19.7893 9.03914 20 8.53043 20 8ZM18 4V8H14V4H18ZM28 4V8H24V4H28ZM8 14V18H4V14H8ZM18 14V18H14V14H18ZM28 14H24V18H28V14ZM8 24V28H4V24H8ZM18 24V28H14V24H18ZM28 24V28H24V24H28ZM24 2C23.4696 2 22.9609 2.21071 22.5858 2.58579C22.2107 2.96086 22 3.46957 22 4V8C22 8.53043 22.2107 9.03914 22.5858 9.41421C22.9609 9.78929 23.4696 10 24 10H28C28.5304 10 29.0391 9.78929 29.4142 9.41421C29.7893 9.03914 30 8.53043 30 8V4C30 3.46957 29.7893 2.96086 29.4142 2.58579C29.0391 2.21071 28.5304 2 28 2H24ZM22 14C22 13.4696 22.2107 12.9609 22.5858 12.5858C22.9609 12.2107 23.4696 12 24 12H28C28.5304 12 29.0391 12.2107 29.4142 12.5858C29.7893 12.9609 30 13.4696 30 14V18C30 18.5304 29.7893 19.0391 29.4142 19.4142C29.0391 19.7893 28.5304 20 28 20H24C23.4696 20 22.9609 19.7893 22.5858 19.4142C22.2107 19.0391 22 18.5304 22 18V14ZM24 22C23.4696 22 22.9609 22.2107 22.5858 22.5858C22.2107 22.9609 22 23.4696 22 24V28C22 28.5304 22.2107 29.0391 22.5858 29.4142C22.9609 29.7893 23.4696 30 24 30H28C28.5304 30 29.0391 29.7893 29.4142 29.4142C29.7893 29.0391 30 28.5304 30 28V24C30 23.4696 29.7893 22.9609 29.4142 22.5858C29.0391 22.2107 28.5304 22 28 22H24Z" />
	</symbol>
	<symbol id="heart" width="24" height="21" viewBox="0 0 24 21" fill="none">
		<path d="M12 7.854L10.659 5.1705C10.326 4.506 9.7485 3.5505 8.931 2.778C8.127 2.0175 7.164 1.5 6 1.5C3.486 1.5 1.5 3.489 1.5 5.88C1.5 7.6965 2.331 8.979 4.302 10.935C4.8075 11.436 5.3835 11.9775 6.021 12.5745C7.683 14.1345 9.75 16.0755 12 18.6705C14.25 16.0755 16.317 14.1345 17.979 12.5745C18.6165 11.9775 19.194 11.4345 19.698 10.935C21.669 8.979 22.5 7.6965 22.5 5.88C22.5 3.489 20.514 1.5 18 1.5C16.8345 1.5 15.873 2.0175 15.069 2.778C14.2515 3.5505 13.674 4.506 13.341 5.1705L12 7.854ZM12.588 20.292C12.5158 20.3776 12.4257 20.4463 12.3242 20.4935C12.2226 20.5407 12.112 20.5651 12 20.5651C11.888 20.5651 11.7774 20.5407 11.6758 20.4935C11.5743 20.4463 11.4842 20.3776 11.412 20.292C9.0105 17.439 6.837 15.399 5.0475 13.7205C1.95 10.812 0 8.9835 0 5.88C0 2.6325 2.685 0 6 0C8.4 0 10.0785 1.575 11.106 3.012C11.496 3.5595 11.793 4.086 12 4.5C12.2597 3.982 12.5586 3.48456 12.894 3.012C13.9215 1.5735 15.6 0 18 0C21.315 0 24 2.6325 24 5.88C24 8.9835 22.05 10.812 18.9525 13.7205C17.163 15.4005 14.9895 17.442 12.588 20.292Z" />
	</symbol>
	<symbol id="people" width="20" height="20" viewBox="0 0 20 20" fill="none">
		<path d="M18.75 17.5C18.75 17.5 20 17.5 20 16.25C20 15 18.75 11.25 13.75 11.25C8.75 11.25 7.5 15 7.5 16.25C7.5 17.5 8.75 17.5 8.75 17.5H18.75ZM8.7775 16.25L8.75 16.245C8.75125 15.915 8.95875 14.9575 9.7 14.095C10.39 13.2863 11.6025 12.5 13.75 12.5C15.8962 12.5 17.1087 13.2875 17.8 14.095C18.5413 14.9575 18.7475 15.9163 18.75 16.245L18.74 16.2475L18.7225 16.25H8.7775ZM13.75 8.75C14.413 8.75 15.0489 8.48661 15.5178 8.01777C15.9866 7.54893 16.25 6.91304 16.25 6.25C16.25 5.58696 15.9866 4.95107 15.5178 4.48223C15.0489 4.01339 14.413 3.75 13.75 3.75C13.087 3.75 12.4511 4.01339 11.9822 4.48223C11.5134 4.95107 11.25 5.58696 11.25 6.25C11.25 6.91304 11.5134 7.54893 11.9822 8.01777C12.4511 8.48661 13.087 8.75 13.75 8.75ZM17.5 6.25C17.5 6.74246 17.403 7.23009 17.2145 7.68506C17.0261 8.14003 16.7499 8.55343 16.4017 8.90165C16.0534 9.24987 15.64 9.52609 15.1851 9.71455C14.7301 9.903 14.2425 10 13.75 10C13.2575 10 12.7699 9.903 12.3149 9.71455C11.86 9.52609 11.4466 9.24987 11.0983 8.90165C10.7501 8.55343 10.4739 8.14003 10.2855 7.68506C10.097 7.23009 10 6.74246 10 6.25C10 5.25544 10.3951 4.30161 11.0983 3.59835C11.8016 2.89509 12.7554 2.5 13.75 2.5C14.7446 2.5 15.6984 2.89509 16.4017 3.59835C17.1049 4.30161 17.5 5.25544 17.5 6.25ZM8.67 11.6C8.1697 11.4436 7.65438 11.3402 7.1325 11.2913C6.83922 11.2626 6.54467 11.2489 6.25 11.25C1.25 11.25 0 15 0 16.25C0 17.0833 0.416667 17.5 1.25 17.5H6.52C6.33478 17.1097 6.24237 16.6819 6.25 16.25C6.25 14.9875 6.72125 13.6975 7.6125 12.62C7.91625 12.2525 8.27 11.9087 8.67 11.6ZM6.15 12.5C5.41066 13.6118 5.01106 14.9148 5 16.25H1.25C1.25 15.925 1.455 14.9625 2.2 14.095C2.88125 13.3 4.065 12.525 6.15 12.5013V12.5ZM1.875 6.875C1.875 5.88044 2.27009 4.92661 2.97335 4.22335C3.67661 3.52009 4.63044 3.125 5.625 3.125C6.61956 3.125 7.57339 3.52009 8.27665 4.22335C8.97991 4.92661 9.375 5.88044 9.375 6.875C9.375 7.86956 8.97991 8.82339 8.27665 9.52665C7.57339 10.2299 6.61956 10.625 5.625 10.625C4.63044 10.625 3.67661 10.2299 2.97335 9.52665C2.27009 8.82339 1.875 7.86956 1.875 6.875ZM5.625 4.375C4.96196 4.375 4.32607 4.63839 3.85723 5.10723C3.38839 5.57607 3.125 6.21196 3.125 6.875C3.125 7.53804 3.38839 8.17393 3.85723 8.64277C4.32607 9.11161 4.96196 9.375 5.625 9.375C6.28804 9.375 6.92393 9.11161 7.39277 8.64277C7.86161 8.17393 8.125 7.53804 8.125 6.875C8.125 6.21196 7.86161 5.57607 7.39277 5.10723C6.92393 4.63839 6.28804 4.375 5.625 4.375Z" />
	</symbol>
	<symbol id="radios" width="20" height="20" viewBox="0 0 20 20" fill="none">
		<g clip-path="url(#clip0_12071_579)">
			<path d="M8.75 3.125C8.75 2.95924 8.81585 2.80027 8.93306 2.68306C9.05027 2.56585 9.20924 2.5 9.375 2.5H18.125C18.2908 2.5 18.4497 2.56585 18.5669 2.68306C18.6842 2.80027 18.75 2.95924 18.75 3.125V4.375C18.75 4.54076 18.6842 4.69973 18.5669 4.81694C18.4497 4.93415 18.2908 5 18.125 5H9.375C9.20924 5 9.05027 4.93415 8.93306 4.81694C8.81585 4.69973 8.75 4.54076 8.75 4.375V3.125ZM5.58794e-08 15C5.58794e-08 14.0054 0.395088 13.0516 1.09835 12.3483C1.80161 11.6451 2.75544 11.25 3.75 11.25C4.74456 11.25 5.69839 11.6451 6.40165 12.3483C7.10491 13.0516 7.5 14.0054 7.5 15C7.5 15.9946 7.10491 16.9484 6.40165 17.6517C5.69839 18.3549 4.74456 18.75 3.75 18.75C2.75544 18.75 1.80161 18.3549 1.09835 17.6517C0.395088 16.9484 5.58794e-08 15.9946 5.58794e-08 15ZM8.75 13.125C8.75 12.9592 8.81585 12.8003 8.93306 12.6831C9.05027 12.5658 9.20924 12.5 9.375 12.5H18.125C18.2908 12.5 18.4497 12.5658 18.5669 12.6831C18.6842 12.8003 18.75 12.9592 18.75 13.125V14.375C18.75 14.5408 18.6842 14.6997 18.5669 14.8169C18.4497 14.9342 18.2908 15 18.125 15H9.375C9.20924 15 9.05027 14.9342 8.93306 14.8169C8.81585 14.6997 8.75 14.5408 8.75 14.375V13.125ZM8.75 6.875C8.75 6.70924 8.81585 6.55027 8.93306 6.43306C9.05027 6.31585 9.20924 6.25 9.375 6.25H15.625C15.7908 6.25 15.9497 6.31585 16.0669 6.43306C16.1842 6.55027 16.25 6.70924 16.25 6.875C16.25 7.04076 16.1842 7.19973 16.0669 7.31694C15.9497 7.43415 15.7908 7.5 15.625 7.5H9.375C9.20924 7.5 9.05027 7.43415 8.93306 7.31694C8.81585 7.19973 8.75 7.04076 8.75 6.875ZM8.75 16.875C8.75 16.7092 8.81585 16.5503 8.93306 16.4331C9.05027 16.3158 9.20924 16.25 9.375 16.25H15.625C15.7908 16.25 15.9497 16.3158 16.0669 16.4331C16.1842 16.5503 16.25 16.7092 16.25 16.875C16.25 17.0408 16.1842 17.1997 16.0669 17.3169C15.9497 17.4342 15.7908 17.5 15.625 17.5H9.375C9.20924 17.5 9.05027 17.4342 8.93306 17.3169C8.81585 17.1997 8.75 17.0408 8.75 16.875ZM3.75 1.25C3.25754 1.25 2.76991 1.347 2.31494 1.53545C1.85997 1.72391 1.44657 2.00013 1.09835 2.34835C0.75013 2.69657 0.473907 3.10997 0.285452 3.56494C0.0969966 4.01991 0 4.50754 0 5C0 5.49246 0.0969966 5.98009 0.285452 6.43506C0.473907 6.89003 0.75013 7.30343 1.09835 7.65165C1.44657 7.99987 1.85997 8.27609 2.31494 8.46455C2.76991 8.653 3.25754 8.75 3.75 8.75C4.74456 8.75 5.69839 8.35491 6.40165 7.65165C7.10491 6.94839 7.5 5.99456 7.5 5C7.5 4.00544 7.10491 3.05161 6.40165 2.34835C5.69839 1.64509 4.74456 1.25 3.75 1.25ZM3.75 6.875C3.25272 6.875 2.77581 6.67746 2.42417 6.32583C2.07254 5.97419 1.875 5.49728 1.875 5C1.875 4.50272 2.07254 4.02581 2.42417 3.67417C2.77581 3.32254 3.25272 3.125 3.75 3.125C4.24728 3.125 4.72419 3.32254 5.07583 3.67417C5.42746 4.02581 5.625 4.50272 5.625 5C5.625 5.49728 5.42746 5.97419 5.07583 6.32583C4.72419 6.67746 4.24728 6.875 3.75 6.875Z" />
		</g>
		<defs>
			<clipPath>
				<rect width="20" height="20" />
			</clipPath>
		</defs>
	</symbol>
	<symbol id="rating" width="16" height="15" viewBox="0 0 16 15" fill="none">
		<path d="M7.55778 0.838169C7.74538 0.482595 8.25462 0.482596 8.44222 0.838169L10.3305 4.41705C10.4028 4.55417 10.5347 4.64997 10.6874 4.67641L14.6747 5.36629C15.0708 5.43484 15.2282 5.91915 14.948 6.20745L12.1277 9.10921C12.0197 9.22039 11.9693 9.3754 11.9914 9.52886L12.5674 13.5341C12.6246 13.932 12.2126 14.2314 11.8519 14.054L8.22062 12.2685C8.0815 12.2001 7.9185 12.2001 7.77938 12.2685L4.14815 14.054C3.78737 14.2314 3.37539 13.932 3.43262 13.5341L4.00861 9.52886C4.03068 9.3754 3.98031 9.22039 3.87226 9.10921L1.05204 6.20745C0.771841 5.91915 0.929206 5.43484 1.32535 5.36629L5.31256 4.67641C5.46533 4.64997 5.59719 4.55417 5.66954 4.41705L7.55778 0.838169Z" />
	</symbol>
	<symbol id="tv" width="32" height="32" viewBox="0 0 32 32" fill="none">
		<path d="M0 8C0 8 0 4 4 4H28C28 4 32 4 32 8V20C32 20 32 24 28 24H20C20 25.3333 20.1667 26.3333 20.5 27H22C22.2652 27 22.5196 27.1054 22.7071 27.2929C22.8946 27.4804 23 27.7348 23 28C23 28.2652 22.8946 28.5196 22.7071 28.7071C22.5196 28.8946 22.2652 29 22 29H10C9.73478 29 9.48043 28.8946 9.29289 28.7071C9.10536 28.5196 9 28.2652 9 28C9 27.7348 9.10536 27.4804 9.29289 27.2929C9.48043 27.1054 9.73478 27 10 27H11.5C11.8333 26.3333 12 25.3333 12 24H4C4 24 0 24 0 20V8ZM2.796 6.29C2.57644 6.44309 2.4012 6.65145 2.288 6.894C2.11952 7.24697 2.02168 7.62948 2 8.02V20C2 20.65 2.156 21.004 2.29 21.204C2.43 21.412 2.63133 21.5813 2.894 21.712C3.23168 21.8736 3.59663 21.9706 3.97 21.998L4.02 22H28C28.65 22 29.004 21.844 29.204 21.71C29.4236 21.5569 29.5988 21.3486 29.712 21.106C29.8736 20.7683 29.9706 20.4034 29.998 20.03L30 19.98V8C30 7.35 29.844 6.996 29.71 6.796C29.5569 6.57644 29.3486 6.4012 29.106 6.288C28.753 6.11952 28.3705 6.02168 27.98 6H4C3.35 6 2.996 6.156 2.796 6.29Z" />
	</symbol>
	<symbol id="wind" width="32" height="32" viewBox="0 0 32 32" fill="none">
		<g clip-path="url(#clip0_12138_437)">
			<path d="M25 4C23.6739 4 22.4021 4.52679 21.4645 5.46447C20.5268 6.40215 20 7.67392 20 9C20 9.26522 19.8946 9.51957 19.7071 9.70711C19.5196 9.89465 19.2652 10 19 10C18.7348 10 18.4804 9.89465 18.2929 9.70711C18.1054 9.51957 18 9.26522 18 9C18 7.61553 18.4105 6.26216 19.1797 5.11101C19.9489 3.95987 21.0421 3.06266 22.3212 2.53285C23.6003 2.00303 25.0078 1.86441 26.3656 2.13451C27.7235 2.4046 28.9708 3.07129 29.9497 4.05026C30.9287 5.02922 31.5954 6.2765 31.8655 7.63437C32.1356 8.99224 31.997 10.3997 31.4672 11.6788C30.9373 12.9579 30.0401 14.0511 28.889 14.8203C27.7378 15.5895 26.3845 16 25 16H1C0.734784 16 0.48043 15.8946 0.292893 15.7071C0.105357 15.5196 0 15.2652 0 15C0 14.7348 0.105357 14.4804 0.292893 14.2929C0.48043 14.1054 0.734784 14 1 14H25C26.3261 14 27.5979 13.4732 28.5355 12.5355C29.4732 11.5979 30 10.3261 30 9C30 7.67392 29.4732 6.40215 28.5355 5.46447C27.5979 4.52679 26.3261 4 25 4ZM11 6C10.4696 6 9.96086 6.21072 9.58579 6.58579C9.21071 6.96086 9 7.46957 9 8C9 8.26522 8.89464 8.51957 8.70711 8.70711C8.51957 8.89465 8.26522 9 8 9C7.73478 9 7.48043 8.89465 7.29289 8.70711C7.10536 8.51957 7 8.26522 7 8C7 7.20888 7.2346 6.43552 7.67412 5.77772C8.11365 5.11993 8.73836 4.60724 9.46927 4.30449C10.2002 4.00173 11.0044 3.92252 11.7804 4.07686C12.5563 4.2312 13.269 4.61217 13.8284 5.17158C14.3878 5.73099 14.7688 6.44372 14.9231 7.21964C15.0775 7.99557 14.9983 8.79983 14.6955 9.53074C14.3928 10.2616 13.8801 10.8864 13.2223 11.3259C12.5645 11.7654 11.7911 12 11 12H1C0.734784 12 0.48043 11.8946 0.292893 11.7071C0.105357 11.5196 0 11.2652 0 11C0 10.7348 0.105357 10.4804 0.292893 10.2929C0.48043 10.1054 0.734784 10 1 10H11C11.5304 10 12.0391 9.78929 12.4142 9.41422C12.7893 9.03914 13 8.53044 13 8C13 7.46957 12.7893 6.96086 12.4142 6.58579C12.0391 6.21072 11.5304 6 11 6ZM0 19C0 18.7348 0.105357 18.4804 0.292893 18.2929C0.48043 18.1054 0.734784 18 1 18H21.084C22.2707 18 23.4307 18.3519 24.4174 19.0112C25.4041 19.6705 26.1732 20.6075 26.6273 21.7039C27.0814 22.8003 27.2002 24.0067 26.9687 25.1705C26.7372 26.3344 26.1658 27.4035 25.3266 28.2426C24.4875 29.0818 23.4184 29.6532 22.2545 29.8847C21.0907 30.1162 19.8843 29.9974 18.7879 29.5433C17.6915 29.0892 16.7545 28.3201 16.0952 27.3334C15.4359 26.3467 15.084 25.1867 15.084 24C15.084 23.7348 15.1894 23.4804 15.3769 23.2929C15.5644 23.1054 15.8188 23 16.084 23C16.3492 23 16.6036 23.1054 16.7911 23.2929C16.9786 23.4804 17.084 23.7348 17.084 24C17.084 24.7911 17.3186 25.5645 17.7581 26.2223C18.1976 26.8801 18.8224 27.3928 19.5533 27.6955C20.2842 27.9983 21.0884 28.0775 21.8644 27.9231C22.6403 27.7688 23.353 27.3878 23.9124 26.8284C24.4718 26.269 24.8528 25.5563 25.0071 24.7804C25.1615 24.0044 25.0823 23.2002 24.7795 22.4693C24.4768 21.7384 23.9641 21.1137 23.3063 20.6741C22.6485 20.2346 21.8751 20 21.084 20H1C0.734784 20 0.48043 19.8946 0.292893 19.7071C0.105357 19.5196 0 19.2652 0 19Z" />
		</g>
		<defs>
			<clipPath>
				<rect width="32" height="32" />
			</clipPath>
		</defs>
	</symbol>
</svg>
